<?xml version="1.0" encoding="UTF-8"?>
<svg id="Layer_2" data-name="Layer 2" xmlns="http://www.w3.org/2000/svg" viewBox="0 0 1808.57 994.24">
  <defs>
    <style>
      .cls-1 {
        fill: #bb3c18;
      }

      .cls-2 {
        fill: none;
      }

      .cls-3 {
        fill: #f5a58b;
      }

      .cls-4 {
        fill: #ed6935;
      }

      .cls-5 {
        fill: #fac7a0;
      }

      .cls-6 {
        fill: #e30613;
      }

      .cls-7 {
        fill: #f49d8e;
      }

      .cls-8 {
        fill: #cc3517;
      }

      .cls-9 {
        fill: #0d8e77;
      }

      .cls-10 {
        fill: #561616;
      }

      .cls-11 {
        fill: #ea9256;
      }

      .cls-12 {
        fill: #fef1ed;
      }

      .cls-13 {
        fill: #fbdacf;
      }

      .cls-14 {
        fill: #48aa97;
      }
    </style>
  </defs>
  <g id="Capa_1" data-name="Capa 1">
    <g>
      <g>
        <g>
          <path class="cls-2" d="M320.29,551v.05c-.3-.25-.55-.45-.85-.6.3.2.55.35.85.55Z"/>
          <path class="cls-14" d="M1737.48,714.69h71.09v-107.76h-71.09v-344.24h-339.8l-103.62,145.78-66-98.78c-1.45-2.79-3.29-5.44-5.64-7.78l-1.3-1.2.05-.05c-24.05-24-45.8-41.11-48.69-38.27-1.95,1.95,5.24,12.47,17.41,26.49-13.97-12.22-24.5-19.36-26.44-17.46-1.94,1.95,5.24,12.47,17.41,26.49-9.63-8.43-17.56-14.42-22.25-16.71-.25-2.39-.6-4.84-1.05-7.28-3.69-21.5-12.82-40.21-25.05-53.93,9.33-10.58,12.87-27.49,5.19-54.03-28.54-98.23-33.93,26.19-33.93,26.19,0,0-27.24-106.72-40.51-2.74,0,0-46.2-73.64-26.19,18.01,0,0-45.5-7.48-36.07,38.22-2.65-.25-5.29-.45-7.93-.65l-27.24-.2h-1.75l-124.77-.8c-123.23,0-215.68,56.92-254.84,167.33v-148.62H244.71L0,606.93v107.76h237.53l-19.06,54.03-11.18,31.73-18.71,53.03-91.9,36.17c-5.04,2-8.23,5.04-9.48,8.28-.6,1.65-.8,3.39-.45,5.04.1.55.25,1.1.45,1.65,1.05,2.74,3.44,5.29,7.13,7.23.75.4,1.55.75,2.35,1.05l202.26,79.38c1.65.65,3.44,1.15,5.29,1.45,5.49,1,11.42.5,16.46-1.45l75.98-29.83,126.22-49.54c13.47-5.29,13.52-17.96.05-23.25l-92.5-36.42-4.99-14.07-5.29-15.22h164.29v-109.26h17.56c45.85,84.51,130.16,127.97,237.28,127.97h141.64v-.3c99.88-3.94,178.16-47.15,221.61-127.67h260.88l-19.06,54.03-11.17,31.73-18.71,53.03-91.9,36.17c-3.39,1.35-5.89,3.09-7.58,5.14-.85,1-1.5,2.05-1.9,3.14-.85,2.2-.85,4.49,0,6.69,1.05,2.74,3.44,5.29,7.14,7.23.75.4,1.5.75,2.35,1.05l202.2,79.38c3.34,1.3,7.14,1.95,10.93,1.95s7.53-.65,10.88-1.95l75.93-29.83,126.27-49.54c13.47-5.29,13.47-17.96,0-23.25l-92.5-36.42-4.94-14.07-5.34-15.22h91.45v-109.26ZM275.54,606.93h-9.13l18.66-27.04-9.53,27.04ZM320.29,551c-.3-.2-.55-.35-.85-.55-.25-.15-.55-.35-.85-.5-2.64-1.35-5.64-2.15-8.78-2.15-.85,0-1.65.1-2.49.2-.1,0-.2,0-.35.05l13.32-19.36v22.3ZM1157.75,312.77c.15-.75.25-1.55.4-2.29,3.34,4.04,7.23,8.48,11.57,13.22,0,.45,0,.95.05,1.45-3.84-4.29-7.88-8.43-12.02-12.37ZM1159.3,296.66c.05-1.8.05-3.59,0-5.34,3.05,4.29,7.33,9.63,12.52,15.62-4.59-4.04-8.83-7.53-12.52-10.28ZM1191.33,353.18c2.1.65,4.29,1.05,6.44,1.25l10.57,28.94c-5.09-10.68-10.77-20.75-17.01-30.18ZM1231.59,453.11c-1.25-6.04-2.69-11.92-4.24-17.71l6.69,18.21-2.45-.5ZM1473.26,606.93h-53.83l53.83-78.23v78.23Z"/>
        </g>
        <g>
          <path class="cls-4" d="M1227.95,158.63l25.51-10.11v-.02c.28-.09.56-.2.84-.31,4.08-1.61,6.82-3.77,8.22-6.47,1.4-2.7,1.82-5.55,1.28-8.56-.99-4.11-1.42-8.18-1.29-12.2.12-4.02,1.11-8.59,2.94-13.72,1.84-5.12,4.67-11.24,8.51-18.34,4.36-7.95,7.42-15.12,9.19-21.51,1.76-6.38,2.49-12.42,2.17-18.09-.31-5.67-1.61-11.38-3.89-17.13-3.75-9.46-9.57-16.7-17.46-21.74-7.9-5.03-17.29-7.75-28.18-8.16-9.41-.35-19.32,1.26-29.74,4.83l.03-.13-3.47,1.37c-.51.19-1.02.39-1.54.59-.47.18-.93.38-1.4.57l-23.3,9.23h0c-.55.21-1.1.42-1.65.64-7.98,3.16-16.17,7.69-24.56,13.59-8.4,5.91-15.51,12.59-21.35,20.05-3.73,4.7-5.89,9.25-6.49,13.68-.61,4.43,0,8.42,1.85,11.98,1.84,3.57,4.41,6.25,7.7,8.06,3.29,1.81,6.97,2.28,11.03,1.42.86-.18,1.71-.45,2.56-.79h0s25.98-10.29,25.98-10.29c3.29-1.24,6.49-3.71,9.6-7.4,4.13-5.28,8.69-9.88,13.69-13.8.94-.73,1.9-1.44,2.9-2.13,2.26-.08,4.37.17,6.31.74,4.98,1.46,8.5,4.79,10.56,9.98,1.1,2.78,1.77,5.69,2,8.71.23,3.02-.15,6.39-1.15,10.11-.99,3.72-2.39,8.19-4.19,13.41-2.84,6.92-4.74,13.36-5.7,19.32-.97,5.97-1.16,11.57-.58,16.82.57,5.24,1.93,10.56,4.06,15.94,1.84,4.64,4.45,7.85,7.83,9.61,3.38,1.77,7.12,1.85,11.2.23Z"/>
          <path class="cls-4" d="M1292.5,177.17c-2.72-6.86-7.03-11.65-12.93-14.36-5.65-2.59-12.01-2.59-19.05,0h0s-27.56,10.9-27.56,10.9h0c-7.27,2.95-12.21,7.43-14.8,13.43-2.63,6.09-2.59,12.57.13,19.43,2.79,7.05,7.25,11.94,13.38,14.66,6.12,2.73,12.89,2.62,20.32-.32l.93-.38,24.47-9.69c.31-.12.63-.23.95-.36,7.42-2.94,12.34-7.46,14.75-13.57,2.41-6.1,2.22-12.68-.58-19.73Z"/>
          <path class="cls-4" d="M926.02,184.86c-.74-.48-1.53-.89-2.37-1.25h0s-25.64-11.09-25.64-11.09c-.1-.05-.21-.09-.31-.14l-.06-.03h0c-3.14-1.32-7.02-1.79-11.66-1.39-6.66.82-13.14.84-19.43.08-1.18-.14-2.36-.32-3.55-.54-1.66-1.54-2.97-3.21-3.94-4.99-2.48-4.55-2.62-9.4-.4-14.52,1.19-2.75,2.77-5.28,4.74-7.57,1.97-2.3,4.63-4.41,7.96-6.34,3.34-1.93,7.48-4.1,12.44-6.52,6.9-2.88,12.8-6.1,17.7-9.63,4.9-3.54,9-7.36,12.3-11.48,3.3-4.11,6.1-8.83,8.4-14.14,1.98-4.58,2.4-8.69,1.26-12.34-1.14-3.65-3.72-6.34-7.75-8.09l-25.19-10.89-.02.02c-.26-.13-.53-.25-.81-.37-4.03-1.74-7.49-2.16-10.39-1.24-2.89.92-5.22,2.64-6.95,5.15-2.21,3.61-4.78,6.79-7.71,9.54-2.93,2.76-6.86,5.3-11.78,7.63-4.92,2.33-11.24,4.64-18.99,6.95-8.71,2.54-15.94,5.44-21.71,8.71-5.76,3.27-10.54,7.02-14.32,11.25-3.79,4.23-6.91,9.18-9.37,14.86-4.04,9.34-5.04,18.58-3.02,27.72,2.03,9.14,6.75,17.7,14.16,25.7,6.41,6.9,14.56,12.77,24.44,17.61l-.12.07,3.44,1.49c.49.22.99.44,1.49.66.45.2.91.39,1.37.58l23.02,9.96h0c.53.24,1.07.48,1.61.72,7.88,3.41,16.87,5.99,26.98,7.76,10.11,1.76,19.87,2.07,29.28.92,5.96-.68,10.71-2.38,14.27-5.08,3.56-2.7,5.95-5.96,7.17-9.78,1.22-3.82,1.3-7.54.25-11.15-1.05-3.61-3.31-6.54-6.79-8.81Z"/>
          <path class="cls-4" d="M942.74,13.85l-.93-.39-24.2-10.47c-.29-.13-.58-.27-.88-.39-.3-.13-.59-.25-.89-.37l-.04-.02h0c-6.96-2.8-13.33-2.95-19.1-.45-6.02,2.61-10.54,7.4-13.55,14.36-2.93,6.77-3.27,13.21-1.01,19.3,2.17,5.83,6.66,10.32,13.47,13.47h0s.84.37.84.37c.03.01.05.02.08.03.03.01.05.02.08.03l26.21,11.34h0c7.22,3.06,13.88,3.38,19.96.97,6.17-2.44,10.72-7.06,13.65-13.83,3.01-6.96,3.32-13.57.91-19.82-2.4-6.26-7.26-10.97-14.59-14.14Z"/>
        </g>
        <g>
          <path class="cls-5" d="M1354.72,501.11c-1.3-3.24-2.95-6.29-4.89-9.13l-55.78-83.52-66-98.78c-1.45-2.79-3.29-5.44-5.64-7.78l-1.3-1.2.05-.05c-24.05-24-45.8-41.11-48.69-38.27-1.95,1.95,5.24,12.47,17.41,26.49-13.97-12.22-24.5-19.36-26.44-17.46-1.94,1.95,5.24,12.47,17.41,26.49-9.63-8.43-17.56-14.42-22.25-16.71-.25-2.39-.6-4.84-1.05-7.28-3.69-21.5-12.82-40.21-25.05-53.93,9.33-10.58,12.87-27.49,5.19-54.03-28.54-98.23-33.93,26.19-33.93,26.19,0,0-27.24-106.72-40.51-2.74,0,0-46.2-73.64-26.19,18.01,0,0-45.5-7.48-36.07,38.22,1.2,5.84,3.29,12.52,6.48,20.26-11.42,1.8-20.16,11.67-20.16,23.65,0,13.22,10.73,23.95,23.95,23.95,4.59,0,8.83-1.25,12.47-3.49l-23.4,57.07c-10.63-2.2-22.1-3.34-34.52-3.34-4.49,0-8.83.15-13.07.45-5.24-.6-10.18-.95-14.77-1-36.37-2.34-96.94,24.45-121.63,67.75-1.4,2.39,3.19,7.93,11.72,14.92l-94.39,147.38c-13.97,21.85-7.58,50.89,14.27,64.86,7.18,4.59,15.12,6.98,23.05,7.33l-.05.05,45.45,8.28c.6,13.87,1.34,22.1,1.34,22.1-.2,10.23,48.99,19.71,115.25,23.25,4.94,1,10.08,1.75,15.42,2.25,1.25,18.16,3.64,30.33,6.33,30.33s4.99-11.82,6.29-29.54h.2c1.3,17.71,3.59,29.54,6.29,29.54s4.99-11.87,6.28-29.68h.2c1.3,17.81,3.59,29.68,6.28,29.68s5.09-12.32,6.34-30.68h.05c1.3,18.31,3.64,30.68,6.38,30.68s5.14-12.57,6.39-31.23c67.65-.8,118.44-8.53,118.64-18.86,0-47.89,13.32-113.6,24.2-159.25,8.63,3.69,16.61,6.64,23.55,8.78,2.54.8,6.73-4.44,11.52-13.72l63.01,13.72,60.77,13.27c2.65.6,5.24.9,7.83,1.05,22.5,1.05,43.06-14.22,47.99-36.92,2.1-9.53,1.1-19.01-2.24-27.39ZM1204.55,447.18c.7-7.98.05-13.02-2.15-13.72-21.35-6.64-55.28-13.92-89.8-18.76-.05,0-1.75-1.25-4.89-3.29-3.14-2-7.73-4.89-13.47-8.13v-27.99c3.84.2,7.68,0,11.57-.65,26.89-4.69,46.5-29.68,51.94-61.86,4.14,3.94,8.18,8.08,12.02,12.37.35,7.43,3.34,14.72,8.98,20.41,3.64,3.64,7.98,6.19,12.57,7.63h.05c6.19,9.43,11.82,19.46,16.91,30.08l.05.1,19.01,52.04.05.15c1.55,5.74,2.94,11.57,4.19,17.56l-27.04-5.94Z"/>
          <path class="cls-2" d="M1169.74,323.68c-4.33-4.7-8.24-9.16-11.6-13.2-.11.76-.24,1.52-.36,2.27,4.14,3.96,8.14,8.08,11.99,12.38-.02-.48-.03-.97-.03-1.45Z"/>
          <path class="cls-2" d="M1197.78,354.45c-2.17-.2-4.33-.62-6.43-1.28,6.22,9.46,11.89,19.52,17,30.18l-10.56-28.9Z"/>
          <path class="cls-2" d="M1234.03,453.62l-6.66-18.22c1.54,5.77,2.95,11.66,4.22,17.68l2.43.53Z"/>
          <path class="cls-2" d="M1159.3,296.63c3.68,2.78,7.92,6.26,12.54,10.29-5.21-5.98-9.5-11.32-12.55-15.63.05,1.79.05,3.57.01,5.34Z"/>
          <path class="cls-9" d="M973.8,721.99c.06,0,.13,0,.19,0-.03-.44-.06-.89-.09-1.35-.03.45-.06.91-.1,1.35Z"/>
          <path class="cls-9" d="M980.92,842.64v-.29c-4.98.2-10.02.29-15.11.29h15.11Z"/>
          <path class="cls-9" d="M986.65,720.97s.03,0,.05,0c0-.11-.02-.22-.02-.34,0,.11-.02.23-.02.34Z"/>
          <path class="cls-9" d="M998.87,370.67l1.48-3.6c-10.61-2.22-22.11-3.35-34.53-3.35-4.48,0-8.83.15-13.07.45,8.84,1.01,18.54,2.79,28.86,5.3,5.83.13,11.6.55,17.26,1.2Z"/>
          <path class="cls-9" d="M690.43,543.31c0-196.81,110-298.53,275.38-298.53l-126.5-.8c-123.22,0-215.7,56.92-254.84,167.34v195.6h71.09v107.76h-53.52c45.83,84.55,130.14,127.96,237.27,127.96h126.5c-164.63,0-275.38-102.52-275.38-299.33Z"/>
          <path class="cls-9" d="M933,719.07c4.94,1,10.07,1.76,15.4,2.27-.04-.52-.07-1.05-.11-1.58-5.19-.19-10.29-.43-15.29-.69Z"/>
          <path class="cls-9" d="M961.02,722.1c.07,0,.14,0,.21,0-.04-.49-.07-.98-.1-1.48-.03.49-.07.98-.1,1.47Z"/>
          <polygon class="cls-9" points="244.7 262.69 0 606.92 0 714.68 126.5 714.68 126.5 606.92 371.2 262.69 244.7 262.69"/>
          <path class="cls-9" d="M446.77,345v261.92h-102.67l-6.78-19.41-9.33-26.59c-.95-2.84-2.54-5.39-4.64-7.48-.95-.95-1.95-1.75-3.05-2.39v-22.35l126.47-183.7Z"/>
          <polygon class="cls-9" points="446.77 714.69 446.77 823.95 420.13 823.95 400.82 768.82 392.79 745.82 381.86 714.69 446.77 714.69"/>
          <path class="cls-9" d="M1240.39,551.12c-.98,65.28-14.3,119.9-37.84,163.56h76.94v-107.76l29.51-41.51c-2.6-.12-5.23-.46-7.86-1.03l-60.75-13.26Z"/>
          <path class="cls-9" d="M1354.71,501.1l169.48-238.41h-126.5l-103.64,145.79,55.79,83.51c1.95,2.84,3.58,5.9,4.86,9.11Z"/>
          <path class="cls-9" d="M1599.78,345v261.92h-29.78l-6.78-19.41-9.33-26.59c-.95-2.84-2.55-5.39-4.64-7.48-1.4-1.4-2.99-2.54-4.74-3.49-2.65-1.35-5.64-2.15-8.78-2.15-.85,0-1.7.1-2.49.2-.4.05-.75.15-1.15.2-.25.05-.55.1-.8.15-.05,0-.15.05-.2.1-1.35.3-2.65.75-3.84,1.35-.15.1-.25.15-.4.25-2.39,1.25-4.49,2.99-6.19,5.14-.1.15-.25.35-.4.55-.65.85-1.25,1.75-1.7,2.74-.05,0-.05.05-.05.05-.05.1-.05.15-.1.2,0,.05-.05.1-.05.15t-.05.1c-.05.1-.1.2-.15.3,0,0,0,.05-.05.05,0,.1-.05.15-.1.25t-.05.1c0,.1-.05.15-.05.2-.05.05-.05.1-.05.15-.05.1-.05.15-.1.2,0,.1-.05.15-.1.25,0,.05,0,.1-.05.15,0,.1-.05.2-.1.25,0,.05,0,.1-.05.15,0,.1,0,.15-.05.25,0,.05,0,.1-.05.1,0,.1-.05.2-.05.25s-.05.1-.05.15-.05.15-.05.25c0,0-.05.05-.05.1-.05.1-.05.25-.1.35l-15.62,44.45h-28.19v-78.23l126.52-183.7Z"/>
          <path class="cls-14" d="M1204.57,447.19l27.03,5.9c-1.28-6.02-2.68-11.92-4.22-17.68l-19.03-52.06c-5.1-10.66-10.78-20.72-17-30.18-4.6-1.44-8.93-3.98-12.58-7.63-5.66-5.67-8.67-12.99-9-20.41-3.86-4.29-7.86-8.42-11.99-12.38-5.47,32.19-25.06,57.21-51.98,61.86-3.87.67-7.73.89-11.56.69v27.96c11.55,6.52,18.28,11.38,18.34,11.42,34.55,4.82,68.46,12.14,89.82,18.78,2.2.68,2.86,5.74,2.17,13.71Z"/>
          <path class="cls-4" d="M1204.57,447.19c.69-7.97.03-13.03-2.17-13.71-21.36-6.64-55.27-13.96-89.82-18.78h0s-19.04,36.38-78.27,14.94c-59.23-21.43-52.72-60.17-52.72-60.17h0c-10.32-2.51-20.02-4.29-28.86-5.3-5.23-.6-10.16-.93-14.74-.99-36.4-2.33-96.94,24.43-121.65,67.74-1.38,2.41,3.2,7.92,11.73,14.91,8.77,7.19,21.73,15.94,36.71,24.49,17.9,10.22,34.58,17.81,45.57,21.12l-65.02,101.53,135.48,66.73c11.47,4.5,19.59,15.66,19.59,28.73,0,.59-.02,1.19-.05,1.77h.05c0,10.99-.35,21.31-.95,30.24,67.62-.82,118.41-8.51,118.61-18.88,0-47.86,13.33-113.58,24.2-159.22,8.66,3.66,16.63,6.65,23.54,8.8,2.57.8,6.77-4.48,11.57-13.76,5.24-10.14,11.18-25.06,16.46-42.03,5.96-19.17,9.74-36.67,10.73-48.14Z"/>
          <path class="cls-4" d="M947.79,710.26c-3.86-3.85-6.71-8.73-8.11-14.18l-123.27-22.37c.6,13.88,1.35,22.1,1.35,22.1-.2,10.23,48.99,19.75,115.24,23.26,5,.27,10.11.5,15.29.69-.2-3.02-.37-6.2-.5-9.5Z"/>
          <path class="cls-11" d="M1056.34,359c-.22,1.67-.34,3.38-.34,5.12,0,21.12,17.12,38.24,38.24,38.24v-27.05c-13.52-.69-26.62-6.57-37.9-16.31Z"/>
          <path class="cls-10" d="M1106.31,302.86c.3.52.61,1.05.91,1.57l-11.88,4.82c-1.26.51-2.12,1.66-1.74,3.07.31,1.19,1.82,2.25,3.07,1.74,4.94-2,9.87-4,14.8-6,1.47-.6,2.38-2.14,1.49-3.67-4.51-7.79-9.01-15.58-13.52-23.38-1.68.32-3.31.85-4.86,1.57,3.91,6.76,7.82,13.52,11.72,20.28Z"/>
          <path class="cls-10" d="M1096.57,276.05c-.78-1.35-1.56-2.7-2.34-4.05-1.61-2.78-5.92-.27-4.31,2.52l2.16,3.73c1.52-.74,3.12-1.33,4.75-1.76l-.25-.44Z"/>
          <path class="cls-10" d="M1118.92,279.35c1.38-.6,1.51-3.36.29-6.16-1.22-2.8-3.33-4.58-4.71-3.98-1.38.6-1.52,3.36-.29,6.16,1.22,2.8,3.33,4.58,4.71,3.98Z"/>
          <path class="cls-10" d="M1066.08,282.54c-1.38.6-1.52,3.36-.29,6.16,1.22,2.8,3.33,4.58,4.71,3.98,1.38-.6,1.51-3.36.29-6.16-1.22-2.8-3.33-4.58-4.71-3.98Z"/>
          <path class="cls-10" d="M1092.74,338.85c-7.16-1.76-13.49-6.23-17.46-12.41-.73-1.13-2.22-1.6-3.42-.89-1.13.66-1.62,2.28-.89,3.41,4.67,7.27,12.04,12.63,20.45,14.7,1.31.32,2.71-.42,3.07-1.74.35-1.28-.43-2.75-1.75-3.07Z"/>
          <path class="cls-7" d="M1130.8,295.86c-5.33.99-9.21,4.14-8.68,7.05.54,2.9,5.3,4.45,10.63,3.46,5.33-.99,9.21-4.14,8.67-7.05-.54-2.9-5.3-4.45-10.63-3.46Z"/>
          <path class="cls-7" d="M1075.83,314.28c-.54-2.9-5.29-4.45-10.62-3.46-5.33.99-9.21,4.14-8.67,7.04.54,2.9,5.3,4.45,10.63,3.46,5.33-.99,9.21-4.14,8.67-7.04Z"/>
          <path class="cls-6" d="M1136.25,263.73c-3.74-6.88-11.53-10.58-19.21-9.48-8.83,1.3-15.27,8.98-15.77,17.76-.05,1.25.05,2.49.3,3.69-1.6.1-3.19.4-4.74.8-1.65.4-3.24,1-4.74,1.75-1.9.9-3.69,2.05-5.29,3.44-.25-.55-.5-1.1-.8-1.6-3.74-6.88-11.53-10.58-19.21-9.48-8.83,1.3-15.27,8.98-15.77,17.76-.2,7.68,4.34,14.87,11.47,17.86,7.18,2.99,15.87,1.1,21.05-4.79,3.49-3.94,5.09-9.13,4.64-14.22,1.85-2,3.99-3.54,6.39-4.64,1.55-.7,3.14-1.25,4.84-1.55,1.2-.25,2.45-.4,3.69-.4,1.95,4.04,5.29,7.38,9.63,9.18,7.18,3.04,15.82,1.15,21-4.74,5.19-5.84,6.24-14.47,2.49-21.35ZM1081.02,296.61c-3.05,4.69-8.98,6.98-14.42,5.74-6.44-1.55-10.73-7.43-10.58-13.97.35-5.64,4.14-10.68,9.58-12.37,5.44-1.7,11.53.2,14.97,4.84,3.49,4.59,3.59,10.98.45,15.77ZM1131.26,280.24c-3.09,4.69-9.03,6.98-14.42,5.69-6.48-1.5-10.73-7.38-10.58-13.92.3-5.64,4.14-10.68,9.53-12.37,5.49-1.7,11.57.2,15.02,4.79,3.44,4.64,3.59,10.98.45,15.82Z"/>
          <path class="cls-10" d="M1033.41,280.27c7.58-6.43,14.16-20.2,6.64-49.72,0,0,67.23,17.92,92.44-10.59,9.33-10.55,12.91-27.46,5.2-53.99-28.55-98.23-33.92,26.17-33.92,26.17,0,0-27.26-106.73-40.51-2.72,0,0-46.19-73.67-26.17,18.02,0,0-45.51-7.51-36.08,38.2,1.2,5.83,3.3,12.53,6.5,20.23,1.24-.2,2.51-.3,3.8-.3,9.96,0,18.49,6.07,22.11,14.71Z"/>
          <path class="cls-10" d="M1003.27,276.75c-4.75,2.84-7.61,8-7.68,13.51-.04,3.22,4.95,3.22,4.99,0,.1-6.99,6.81-12.23,13.62-10.32l.23.07c-4.35,3.5-7.49,8.47-8.61,13.97-.26,1.27.37,2.76,1.74,3.07,1.24.28,2.79-.38,3.07-1.74.14-.7.31-1.39.52-2.08l.34-1.02.15-.4.16-.39c.55-1.21,1.18-2.37,1.93-3.46l.56-.78.05-.06.02-.03.34-.41c.46-.55.95-1.07,1.46-1.57.51-.5,1.06-.96,1.61-1.42h0s.43-.32.43-.32l.77-.51c3.16,3.36,4.04,8.65,1.5,12.92-1.94,3.25-5.44,5.16-9.2,5.21-3.21.04-3.22,5.04,0,4.99,10.21-.14,17.91-9.99,15.13-19.95-2.72-9.77-14.44-14.48-23.16-9.27Z"/>
          <path class="cls-1" d="M1131.85,86.74c3.29,1.81,6.97,2.28,11.03,1.42.86-.18,1.71-.45,2.56-.79h0s25.98-10.29,25.98-10.29c-.72.27-1.45.49-2.19.64-4.06.86-7.73.39-11.03-1.42-3.29-1.81-5.86-4.49-7.7-8.06-1.84-3.56-2.46-7.56-1.85-11.98.61-4.43,2.77-8.99,6.5-13.68,5.84-7.47,12.96-14.15,21.36-20.05,7.9-5.56,15.62-9.89,23.16-13.02l-23.3,9.23h0c-.55.21-1.1.42-1.65.64-7.98,3.16-16.17,7.69-24.56,13.59-8.4,5.91-15.51,12.59-21.35,20.05-3.73,4.7-5.89,9.25-6.49,13.68-.61,4.43,0,8.42,1.85,11.98,1.84,3.57,4.41,6.25,7.7,8.06Z"/>
          <path class="cls-1" d="M1203.92,54.49c4.98,1.46,8.5,4.79,10.56,9.98,1.1,2.78,1.77,5.69,2,8.71.23,3.02-.15,6.39-1.15,10.11-.99,3.72-2.39,8.19-4.19,13.41-2.84,6.92-4.74,13.36-5.71,19.32-.97,5.97-1.16,11.57-.58,16.82.57,5.25,1.93,10.56,4.06,15.94,1.84,4.64,4.45,7.85,7.83,9.61,3.38,1.77,7.12,1.85,11.2.23l25.51-10.11v-.02c-3.76,1.29-7.21,1.12-10.36-.54-3.39-1.77-6-4.97-7.83-9.61-2.13-5.38-3.49-10.69-4.06-15.94-.58-5.24-.38-10.85.58-16.82.96-5.96,2.86-12.4,5.71-19.32,1.8-5.22,3.19-9.69,4.19-13.41.99-3.72,1.38-7.09,1.15-10.11-.23-3.02-.9-5.92-2-8.71-2.06-5.19-5.58-8.52-10.56-9.98-4.98-1.46-11-.8-18.04,2-5.43,2.15-10.3,4.72-14.62,7.71,2.26-.08,4.37.17,6.31.74Z"/>
          <path class="cls-1" d="M1206.07,6.96l-3.47,1.37c1.15-.44,2.3-.85,3.43-1.24l.03-.13Z"/>
          <path class="cls-1" d="M1232.96,173.71c-7.27,2.94-12.21,7.42-14.8,13.43-2.63,6.09-2.59,12.57.13,19.43,2.79,7.05,7.25,11.94,13.38,14.66,6.12,2.73,12.89,2.62,20.32-.32l.93-.39,24.47-9.69c-7.05,2.58-13.51,2.57-19.37-.04-6.13-2.73-10.58-7.61-13.38-14.66-2.72-6.86-2.76-13.34-.13-19.43,2.63-6.08,7.66-10.6,15.08-13.54l-26.63,10.55h0Z"/>
          <path class="cls-1" d="M1260.51,162.79l-.92.36c.31-.12.62-.24.93-.35h0Z"/>
          <polygon class="cls-1" points="1259.58 163.16 1259.59 163.16 1259.58 163.16 1259.58 163.16"/>
          <path class="cls-1" d="M824.04,197.52l-.12.07,3.44,1.49c-1.13-.51-2.24-1.03-3.33-1.56Z"/>
          <path class="cls-1" d="M847.2,165.61c5.36,2.32,10.62,3.95,15.79,4.89-1.66-1.55-2.97-3.21-3.94-4.99-2.48-4.55-2.62-9.4-.4-14.52,1.19-2.75,2.77-5.28,4.74-7.57,1.97-2.3,4.63-4.41,7.96-6.34,3.34-1.93,7.48-4.1,12.44-6.52,6.9-2.88,12.8-6.1,17.7-9.63,4.9-3.54,9-7.36,12.3-11.48,3.3-4.11,6.1-8.83,8.4-14.14,1.98-4.58,2.4-8.69,1.26-12.34-1.14-3.65-3.72-6.34-7.75-8.09l-25.19-10.89-.02.02c3.57,1.75,5.89,4.31,6.95,7.71,1.15,3.64.72,7.76-1.26,12.34-2.3,5.31-5.09,10.03-8.4,14.14-3.3,4.12-7.4,7.94-12.3,11.48-4.9,3.53-10.79,6.74-17.7,9.63-4.96,2.42-9.11,4.59-12.44,6.52-3.33,1.93-5.99,4.04-7.96,6.34-1.97,2.3-3.55,4.82-4.74,7.57-2.22,5.13-2.08,9.97.4,14.52,2.49,4.55,7.21,8.34,14.17,11.35Z"/>
          <path class="cls-1" d="M853.25,210.28c.53.24,1.07.48,1.61.72,7.88,3.41,16.87,5.99,26.98,7.76,10.11,1.76,19.87,2.07,29.28.92,5.96-.68,10.71-2.38,14.27-5.08,3.56-2.7,5.95-5.96,7.17-9.78,1.22-3.82,1.3-7.54.25-11.15-1.05-3.61-3.31-6.54-6.79-8.81-.74-.48-1.53-.89-2.37-1.25h0s-25.64-11.09-25.64-11.09c.7.32,1.37.68,1.99,1.09,3.48,2.26,5.74,5.2,6.79,8.81,1.05,3.6.97,7.32-.26,11.14-1.21,3.82-3.61,7.08-7.16,9.78-3.56,2.7-8.31,4.4-14.27,5.08-9.41,1.15-19.16.84-29.28-.92-9.53-1.66-18.06-4.05-25.61-7.18l23.02,9.96h0Z"/>
          <path class="cls-1" d="M897.7,172.38l-.06-.03h0s.04.02.06.03Z"/>
          <path class="cls-1" d="M895.61,48.9h0s.84.37.84.37c-.28-.12-.56-.25-.83-.37Z"/>
          <path class="cls-1" d="M915.8,2.22h0s.03.01.04.02l-.04-.02Z"/>
          <path class="cls-1" d="M922.81,60.68c7.22,3.06,13.88,3.38,19.96.97,6.17-2.44,10.72-7.06,13.65-13.83,3.01-6.96,3.32-13.57.91-19.82-2.4-6.26-7.26-10.97-14.59-14.14l-.93-.39-24.2-10.47c6.84,3.16,11.42,7.74,13.72,13.74,2.4,6.26,2.1,12.86-.91,19.83-2.93,6.77-7.48,11.39-13.65,13.83-6.14,2.43-12.86,2.08-20.16-1.06l26.21,11.34h0Z"/>
        </g>
      </g>
      <g>
        <path class="cls-13" d="M1748.82,889.66l-92.5-36.4-4.94-14.1s0,0,0,0l-24.65-70.35-72.85-207.88c-2.53-7.61-9.72-13.1-18.18-13.1-7.52,0-14.03,4.34-17.16,10.65-.01.03-.03.05-.04.08-.03.06-.05.11-.08.17-.02.05-.04.09-.07.14-.02.04-.04.09-.06.13-.04.09-.08.19-.13.28-.01.03-.02.05-.03.08-.03.07-.06.15-.09.22-.02.04-.03.08-.05.12-.03.07-.06.14-.08.21-.02.05-.04.1-.06.15-.02.06-.05.12-.07.18-.03.08-.06.16-.09.24-.02.05-.04.11-.06.16-.03.09-.06.18-.09.27-.02.05-.03.1-.05.14-.02.07-.05.15-.07.22-.01.04-.03.09-.04.14-.02.08-.05.15-.07.23-.01.04-.03.09-.04.13-.02.08-.05.16-.07.25-.01.04-.02.08-.03.12-.03.12-.06.24-.09.36l-19.34,54.85-16.66,47.26-36.7,104.12h0l-11.18,31.71-18.7,53.06-91.91,36.17c-13.48,5.3-13.46,17.98.02,23.27l202.21,79.34c6.69,2.63,15.08,2.63,21.77,0l75.97-29.81h0l126.24-49.53c13.49-5.29,13.5-17.96.02-23.27Z"/>
        <g>
          <path class="cls-4" d="M1664.28,875.97l-7.96-22.72-4.94-14.1c-22.1,12.57-65.2,21.13-114.82,21.23,8.86,23,20.98,44.46,37.4,62.75,0,0,0,0,0,0,53.93-5.04,93.18-20.47,93.18-38.72,0-2.9-.99-5.72-2.87-8.44Z"/>
          <path class="cls-4" d="M1571.07,778.6c11,25.72,21.82,41.47,28.7,39.6,6.5-1.77,8.06-18.89,5.23-44.19,7.83-1.5,15.11-3.24,21.73-5.2l-26.18-74.71c-3.9.68-7.92,1.3-12.06,1.86h0c-9.91-33.84-21.66-62.09-31.64-77.43,5.25-.26,10.39-.63,15.41-1.08.4-.17.82-.31,1.28-.4l-19.67-56.13c-2.53-7.61-9.72-13.1-18.18-13.1-1.52,0-2.99.19-4.41.53-3.26,23.43-6.71,46.91-9.65,70.44,0,0,0,.02,0,.03,4.62.15,9.31.23,14.06.23.12,0,.25,0,.37,0h0c-1.92,16.12,1.5,45.78,9.61,80.19-3.29.08-6.62.12-9.98.12-7.16,0-14.19-.18-21.05-.52-.64,17.13-.62,34.28.36,51.45.55,9.68,1.38,19.51,2.55,29.4,0,0,0,0,0,0,5.93.25,11.98.38,18.13.38,12.25,0,24.12-.52,35.37-1.48h0Z"/>
        </g>
        <g>
          <path class="cls-8" d="M1521.65,618.79c2.94-23.53,6.38-47.01,9.65-70.44-5.89,1.39-10.74,5.49-13.13,10.92-.01.03-.02.05-.03.08-.03.07-.06.15-.09.22-.02.04-.03.08-.05.12-.03.07-.06.14-.08.21-.02.05-.04.1-.06.15-.02.06-.05.12-.07.18-.03.08-.06.16-.09.24-.02.05-.04.11-.06.16-.03.09-.06.18-.09.27-.02.05-.03.1-.05.14-.02.07-.05.15-.07.22-.01.04-.03.09-.04.14-.02.08-.05.15-.07.23-.01.04-.03.09-.04.13-.02.08-.05.16-.07.25-.01.04-.02.08-.03.12-.03.12-.06.24-.09.36l-19.34,54.85c7.69.71,15.7,1.19,23.9,1.46Z"/>
          <path class="cls-8" d="M1514.66,698.84h0c-15.77-.78-30.6-2.43-43.96-4.77h0l-26.32,74.65h0c19.54,5.81,44.94,9.77,73.19,10.97-1.17-9.88-2-19.72-2.55-29.4-.98-17.18-1.01-34.33-.36-51.45Z"/>
          <path class="cls-8" d="M1536.56,860.38c-.29,0-.57,0-.86,0-50.28,0-93.97-8.69-116.07-21.46l-5.13,14.56-8.75,24.82c-.98,1.99-1.49,4.03-1.49,6.11,0,22.35,58.85,40.46,131.45,40.46,13.31,0,26.15-.61,38.26-1.74-16.42-18.29-28.54-39.75-37.4-62.75,0,0,0,0,0,0Z"/>
        </g>
        <g>
          <path class="cls-12" d="M1605,774.01h0c-2.12-18.89-6.69-42.35-13.49-67.37-.98-3.61-1.99-7.17-3.01-10.67h0c-9.91-33.84-21.66-62.09-31.64-77.43h0c-5.71-8.78-10.84-13.33-14.72-12.27-3.18.87-5.18,5.41-6.06,12.79h0c-1.92,16.12,1.5,45.78,9.61,80.19,1.43,6.06,3,12.27,4.72,18.57,6.28,23.08,13.51,44.04,20.67,60.78h0c11,25.72,21.82,41.47,28.7,39.6,6.5-1.77,8.06-18.89,5.23-44.19Z"/>
          <path class="cls-3" d="M1556.85,618.53c-5.71-8.78-10.84-13.33-14.72-12.27-3.18.87-5.18,5.41-6.06,12.8h0c7.07,0,14.01-.18,20.78-.52Z"/>
          <path class="cls-3" d="M1545.68,699.24h0c1.43,6.06,3,12.27,4.72,18.57,6.28,23.08,13.51,44.04,20.67,60.78h0c12.1-1.04,23.5-2.6,33.93-4.59-2.12-18.89-6.69-42.35-13.49-67.37-.98-3.61-1.99-7.17-3.01-10.67h0c-13.27,1.79-27.68,2.93-42.81,3.28Z"/>
        </g>
      </g>
      <g>
        <path class="cls-13" d="M522.93,889.66l-92.5-36.4-4.94-14.1s0,0,0,0l-24.65-70.35-72.85-207.88c-2.53-7.61-9.72-13.1-18.18-13.1-7.52,0-14.03,4.34-17.16,10.65-.01.03-.03.05-.04.08-.03.06-.06.11-.08.17-.02.05-.04.09-.07.14-.02.04-.04.09-.06.13-.04.09-.08.19-.13.28-.01.03-.02.05-.03.08-.03.07-.06.15-.09.22-.02.04-.03.08-.05.12-.03.07-.06.14-.08.21-.02.05-.04.1-.06.15-.02.06-.05.12-.07.18-.03.08-.06.16-.09.24-.02.05-.04.11-.06.16-.03.09-.06.18-.09.27-.02.05-.03.1-.05.14-.02.07-.05.15-.07.22-.01.04-.03.09-.04.14-.02.08-.05.15-.07.23-.01.04-.03.09-.04.13-.02.08-.05.16-.07.25-.01.04-.02.08-.03.12-.03.12-.06.24-.09.36l-19.34,54.85-16.66,47.26-36.7,104.12h0l-11.18,31.71-18.7,53.06-91.91,36.17c-13.48,5.3-13.46,17.98.02,23.27l202.21,79.34c6.69,2.63,15.08,2.63,21.77,0l75.97-29.81h0l126.25-49.53c13.49-5.29,13.5-17.96.02-23.27Z"/>
        <g>
          <path class="cls-4" d="M438.39,875.97l-7.96-22.72-4.94-14.1c-22.1,12.57-65.2,21.13-114.82,21.23,8.86,23,20.98,44.46,37.4,62.75,0,0,0,0,0,0,53.93-5.04,93.18-20.47,93.18-38.72,0-2.9-.99-5.72-2.87-8.44Z"/>
          <path class="cls-4" d="M345.18,778.6c11,25.72,21.82,41.47,28.7,39.6,6.5-1.77,8.06-18.89,5.23-44.19,7.83-1.5,15.11-3.24,21.73-5.2l-26.18-74.71c-3.9.68-7.92,1.3-12.06,1.86h0c-9.91-33.84-21.66-62.09-31.64-77.43,5.25-.26,10.39-.63,15.41-1.08.4-.17.82-.31,1.28-.4l-19.67-56.13c-2.53-7.61-9.72-13.1-18.18-13.1-1.52,0-2.99.19-4.41.53-3.26,23.43-6.71,46.91-9.64,70.44,0,0,0,.02,0,.03,4.62.15,9.31.23,14.06.23.12,0,.25,0,.37,0h0c-1.92,16.12,1.5,45.78,9.61,80.19-3.29.08-6.62.12-9.98.12-7.16,0-14.19-.18-21.05-.52-.64,17.13-.62,34.28.36,51.45.55,9.68,1.38,19.51,2.55,29.4,0,0,0,0,0,0,5.93.25,11.98.38,18.13.38,12.25,0,24.12-.52,35.37-1.48h0Z"/>
        </g>
        <g>
          <path class="cls-8" d="M295.75,618.79c2.94-23.53,6.38-47.01,9.65-70.44-5.89,1.39-10.74,5.49-13.13,10.92-.01.03-.02.05-.03.08-.03.07-.06.15-.09.22-.02.04-.03.08-.05.12-.03.07-.06.14-.08.21-.02.05-.04.1-.06.15-.02.06-.05.12-.07.18-.03.08-.06.16-.09.24-.02.05-.04.11-.06.16-.03.09-.06.18-.09.27-.02.05-.03.1-.05.14-.02.07-.05.15-.07.22-.01.04-.03.09-.04.14-.02.08-.05.15-.07.23-.01.04-.03.09-.04.13-.02.08-.05.16-.07.25,0,.04-.02.08-.03.12-.03.12-.06.24-.09.36l-19.34,54.85c7.69.71,15.69,1.19,23.9,1.46Z"/>
          <path class="cls-8" d="M288.76,698.84h0c-15.77-.78-30.6-2.43-43.96-4.77h0l-26.32,74.65h0c19.54,5.81,44.94,9.77,73.19,10.97-1.17-9.88-2-19.72-2.55-29.4-.98-17.18-1.01-34.33-.36-51.45Z"/>
          <path class="cls-8" d="M310.66,860.38c-.29,0-.57,0-.86,0-50.28,0-93.97-8.69-116.07-21.46l-5.13,14.56-8.75,24.82c-.98,1.99-1.49,4.03-1.49,6.11,0,22.35,58.85,40.46,131.45,40.46,13.31,0,26.15-.61,38.26-1.74-16.42-18.29-28.54-39.75-37.4-62.75,0,0,0,0,0,0Z"/>
        </g>
        <g>
          <path class="cls-12" d="M379.11,774.01h0c-2.12-18.89-6.69-42.35-13.49-67.37-.98-3.61-1.99-7.17-3.02-10.67h0c-9.91-33.84-21.66-62.09-31.64-77.43h0c-5.71-8.78-10.84-13.33-14.72-12.27-3.18.87-5.18,5.41-6.06,12.79h0c-1.92,16.12,1.5,45.78,9.61,80.19,1.43,6.06,3,12.27,4.72,18.57,6.28,23.08,13.51,44.04,20.67,60.78h0c11,25.72,21.82,41.47,28.7,39.6,6.5-1.77,8.06-18.89,5.23-44.19Z"/>
          <path class="cls-3" d="M330.96,618.53c-5.71-8.78-10.84-13.33-14.72-12.27-3.18.87-5.18,5.41-6.06,12.8h0c7.07,0,14.01-.18,20.78-.52Z"/>
          <path class="cls-3" d="M319.79,699.24h0c1.43,6.06,3,12.27,4.72,18.57,6.28,23.08,13.51,44.04,20.67,60.78h0c12.1-1.04,23.5-2.6,33.93-4.59-2.12-18.89-6.69-42.35-13.49-67.37-.98-3.61-1.99-7.17-3.01-10.67h0c-13.27,1.79-27.68,2.93-42.81,3.28Z"/>
        </g>
      </g>
    </g>
  </g>
</svg>