<svg width="18" height="18" viewBox="0 0 18 18" fill="none" xmlns="http://www.w3.org/2000/svg">
<path d="M8.06025 0.657135C8.37936 -0.219045 9.61928 -0.219045 9.93975 0.657135L11.4379 4.77046C11.7422 5.60202 12.3979 6.25784 13.2295 6.56072L17.3429 8.06025C18.219 8.38071 18.219 9.62063 17.3429 9.93975L13.2295 11.4379C12.398 11.7422 11.7422 12.3979 11.4379 13.2295L9.93975 17.3429C9.62064 18.219 8.37937 18.219 8.06025 17.3429L6.56207 13.2295C6.25783 12.398 5.60205 11.7422 4.77046 11.4379L0.657135 9.93975C-0.219045 9.62064 -0.219045 8.38072 0.657135 8.06025L4.77046 6.56072C5.60202 6.25784 6.25784 5.60205 6.56207 4.77046L8.06025 0.657135Z" fill="#00BBA7"/>
</svg>
