<svg width="19" height="18" viewBox="0 0 19 18" fill="none" xmlns="http://www.w3.org/2000/svg">
<path d="M8.56025 0.657135C8.87936 -0.219045 10.1193 -0.219045 10.4397 0.657135L11.9379 4.77046C12.2422 5.60202 12.8979 6.25784 13.7295 6.56072L17.8429 8.06025C18.719 8.38071 18.719 9.62063 17.8429 9.93975L13.7295 11.4379C12.898 11.7422 12.2422 12.3979 11.9379 13.2295L10.4397 17.3429C10.1206 18.219 8.87937 18.219 8.56025 17.3429L7.06207 13.2295C6.75783 12.398 6.10205 11.7422 5.27046 11.4379L1.15713 9.93975C0.280955 9.62064 0.280955 8.38072 1.15713 8.06025L5.27046 6.56072C6.10202 6.25784 6.75784 5.60205 7.06207 4.77046L8.56025 0.657135Z" fill="#F0FDFA"/>
</svg>
