<?xml version="1.0" encoding="UTF-8"?>
<svg id="Layer_2" data-name="Layer 2" xmlns="http://www.w3.org/2000/svg" viewBox="0 0 192 192">
  <defs>
    <style>
      .cls-1 {
        fill: #fff;
      }
    </style>
  </defs>
  <g id="Layer_1-2" data-name="Layer 1">
    <rect width="192" height="192" rx="21.33" ry="21.33"/>
    <path class="cls-1" d="M154.03,147.79l-10.92-10.92,2.87-44.93c1-15.68-4.2-30.06-14.64-40.5-10.44-10.44-24.87-15.62-40.5-14.63l-46.92,3c-.29.02-.54.13-.8.2-.22.06-.44.07-.66.17-1.03.45-1.85,1.26-2.3,2.3-.09.21-.11.43-.17.66-.07.27-.18.52-.2.8l-3,46.92c-1,15.68,4.2,30.06,14.64,40.5,9.59,9.59,22.51,14.76,36.71,14.76,1.25,0,2.52-.04,3.79-.12l44.93-2.87,10.92,10.92c.86.86,1.99,1.29,3.12,1.29s2.26-.43,3.12-1.29c1.72-1.72,1.72-4.52,0-6.24ZM91.41,45.61c13.1-.83,25.08,3.45,33.7,12.07,8.62,8.62,12.91,20.59,12.07,33.7l-2.37,37.18-14.56-14.56c4.9-6.24,7.85-14.08,7.85-22.61,0-20.24-16.46-36.7-36.7-36.7-8.53,0-16.37,2.95-22.61,7.85l-14.56-14.56,37.18-2.37ZM91.39,63.51c15.37,0,27.87,12.51,27.87,27.87s-12.51,27.87-27.87,27.87-27.87-12.5-27.87-27.87,12.51-27.87,27.87-27.87ZM91.38,137.17c-13.11.84-25.08-3.45-33.7-12.07-8.62-8.62-12.91-20.59-12.07-33.7l2.37-37.18,14.56,14.56c-4.9,6.24-7.85,14.08-7.85,22.61,0,20.24,16.46,36.7,36.7,36.7,8.53,0,16.37-2.95,22.61-7.85l14.56,14.56-37.18,2.37Z"/>
  </g>
</svg>