<?xml version="1.0" encoding="UTF-8"?>
<svg id="Layer_2" data-name="Layer 2" xmlns="http://www.w3.org/2000/svg" viewBox="0 0 72 72">
  <defs>
    <style>
      .cls-1 {
        fill: #fff;
      }
    </style>
  </defs>
  <g id="Layer_1-2" data-name="Layer 1">
    <rect width="72" height="72" rx="8" ry="8"/>
    <path class="cls-1" d="M57.76,55.42l-4.09-4.09,1.08-16.85c.38-5.88-1.57-11.27-5.49-15.19-3.91-3.91-9.33-5.86-15.19-5.49l-17.6,1.12c-.11,0-.2.05-.3.08-.08.02-.17.03-.25.06-.39.17-.69.47-.86.86-.03.08-.04.16-.06.25-.03.1-.07.19-.08.3l-1.12,17.6c-.38,5.88,1.57,11.27,5.49,15.19,3.6,3.6,8.44,5.53,13.77,5.53.47,0,.94-.01,1.42-.05l16.85-1.08,4.09,4.09c.32.32.75.48,1.17.48s.85-.16,1.17-.48c.65-.65.65-1.69,0-2.34ZM34.28,17.1c4.91-.31,9.4,1.29,12.64,4.52,3.23,3.23,4.84,7.72,4.53,12.64l-.89,13.94-5.46-5.46c1.84-2.34,2.94-5.28,2.94-8.48,0-7.59-6.17-13.76-13.76-13.76-3.2,0-6.14,1.11-8.48,2.94l-5.46-5.46,13.94-.89ZM34.27,23.82c5.76,0,10.45,4.69,10.45,10.45s-4.69,10.45-10.45,10.45-10.45-4.69-10.45-10.45,4.69-10.45,10.45-10.45ZM34.27,51.44c-4.92.32-9.4-1.29-12.64-4.53-3.23-3.23-4.84-7.72-4.53-12.64l.89-13.94,5.46,5.46c-1.84,2.34-2.94,5.28-2.94,8.48,0,7.59,6.17,13.76,13.76,13.76,3.2,0,6.14-1.11,8.48-2.94l5.46,5.46-13.94.89Z"/>
  </g>
</svg>