<?xml version="1.0" encoding="UTF-8"?>
<svg id="Layer_2" data-name="Layer 2" xmlns="http://www.w3.org/2000/svg" viewBox="0 0 144 144">
  <defs>
    <style>
      .cls-1 {
        fill: #fff;
      }
    </style>
  </defs>
  <g id="Layer_1-2" data-name="Layer 1">
    <rect width="144" height="144" rx="16" ry="16"/>
    <path class="cls-1" d="M115.52,110.84l-8.19-8.19,2.15-33.7c.75-11.76-3.15-22.55-10.98-30.38-7.83-7.83-18.65-11.72-30.38-10.98l-35.19,2.25c-.21.01-.4.1-.6.15-.17.04-.33.06-.49.12-.77.33-1.39.95-1.72,1.72-.07.16-.08.33-.12.49-.05.2-.14.39-.15.6l-2.25,35.19c-.75,11.76,3.15,22.55,10.98,30.38,7.19,7.19,16.89,11.07,27.53,11.07.94,0,1.89-.03,2.84-.09l33.7-2.15,8.19,8.19c.65.65,1.49.97,2.34.97s1.69-.32,2.34-.97c1.29-1.29,1.29-3.39,0-4.68ZM68.55,34.21c9.82-.62,18.81,2.59,25.27,9.05,6.46,6.47,9.68,15.44,9.05,25.28l-1.78,27.88-10.92-10.92c3.68-4.68,5.89-10.56,5.89-16.96,0-15.18-12.35-27.53-27.53-27.53-6.4,0-12.28,2.21-16.96,5.89l-10.92-10.92,27.89-1.78ZM68.54,47.64c11.53,0,20.91,9.38,20.91,20.91s-9.38,20.9-20.91,20.9-20.91-9.38-20.91-20.9,9.38-20.91,20.91-20.91ZM68.53,102.88c-9.83.63-18.81-2.59-25.27-9.05-6.47-6.46-9.68-15.44-9.05-25.27l1.78-27.88,10.92,10.92c-3.68,4.68-5.89,10.56-5.89,16.96,0,15.18,12.35,27.53,27.53,27.53,6.4,0,12.28-2.21,16.96-5.89l10.92,10.92-27.88,1.78Z"/>
  </g>
</svg>