<?xml version="1.0" encoding="UTF-8"?>
<svg xmlns="http://www.w3.org/2000/svg" xmlns:xlink="http://www.w3.org/1999/xlink" width="192px" height="192px" viewBox="0 0 192 192" version="1.1">
<g id="surface1">
<path style=" stroke:none;fill-rule:nonzero;fill:rgb(0%,0%,0%);fill-opacity:1;" d="M 21.328125 0 L 170.671875 0 C 182.449219 0 192 9.550781 192 21.328125 L 192 170.671875 C 192 182.449219 182.449219 192 170.671875 192 L 21.328125 192 C 9.550781 192 0 182.449219 0 170.671875 L 0 21.328125 C 0 9.550781 9.550781 0 21.328125 0 Z M 21.328125 0 "/>
<path style=" stroke:none;fill-rule:nonzero;fill:rgb(100%,100%,100%);fill-opacity:1;" d="M 154.03125 147.789062 L 143.109375 136.871094 L 145.980469 91.941406 C 146.980469 76.261719 141.78125 61.878906 131.339844 51.441406 C 120.898438 41 106.46875 35.820312 90.839844 36.808594 L 43.921875 39.808594 C 43.628906 39.828125 43.378906 39.941406 43.121094 40.011719 C 42.898438 40.070312 42.679688 40.078125 42.460938 40.179688 C 41.429688 40.628906 40.609375 41.441406 40.160156 42.480469 C 40.070312 42.691406 40.050781 42.910156 39.988281 43.140625 C 39.921875 43.410156 39.808594 43.660156 39.789062 43.941406 L 36.789062 90.859375 C 35.789062 106.539062 40.988281 120.921875 51.429688 131.359375 C 61.019531 140.949219 73.941406 146.121094 88.140625 146.121094 C 89.390625 146.121094 90.660156 146.078125 91.929688 146 L 136.859375 143.128906 L 147.78125 154.050781 C 148.640625 154.910156 149.769531 155.339844 150.898438 155.339844 C 152.03125 155.339844 153.160156 154.910156 154.019531 154.050781 C 155.738281 152.328125 155.738281 149.53125 154.019531 147.808594 Z M 91.410156 45.609375 C 104.511719 44.78125 116.488281 49.058594 125.109375 57.679688 C 133.730469 66.300781 138.019531 78.269531 137.179688 91.378906 L 134.808594 128.558594 L 120.25 114 C 125.148438 107.761719 128.101562 99.921875 128.101562 91.390625 C 128.101562 71.148438 111.640625 54.691406 91.398438 54.691406 C 82.871094 54.691406 75.03125 57.640625 68.789062 62.539062 L 54.230469 47.980469 Z M 91.390625 63.511719 C 106.761719 63.511719 119.261719 76.019531 119.261719 91.378906 C 119.261719 106.738281 106.75 119.25 91.390625 119.25 C 76.03125 119.25 63.519531 106.75 63.519531 91.378906 C 63.519531 76.011719 76.03125 63.511719 91.390625 63.511719 Z M 91.378906 137.171875 C 78.269531 138.011719 66.300781 133.71875 57.679688 125.101562 C 49.058594 116.480469 44.769531 104.511719 45.609375 91.398438 L 47.980469 54.21875 L 62.539062 68.78125 C 57.640625 75.019531 54.691406 82.859375 54.691406 91.390625 C 54.691406 111.628906 71.148438 128.089844 91.390625 128.089844 C 99.921875 128.089844 107.761719 125.140625 114 120.238281 L 128.558594 134.800781 Z M 91.378906 137.171875 "/>
</g>
</svg>
