<?xml version="1.0" encoding="UTF-8"?>
<svg id="Layer_2" data-name="Layer 2" xmlns="http://www.w3.org/2000/svg" viewBox="0 0 150 150">
  <defs>
    <style>
      .cls-1 {
        fill: #fff;
      }
    </style>
  </defs>
  <g id="Layer_1-2" data-name="Layer 1">
    <rect y="0" width="150" height="150" rx="16.67" ry="16.67"/>
    <path class="cls-1" d="M120.34,115.46l-8.53-8.53,2.24-35.1c.78-12.25-3.28-23.49-11.44-31.64-8.15-8.15-19.43-12.2-31.64-11.43l-36.66,2.34c-.22.01-.42.1-.63.16-.17.04-.35.06-.51.13-.81.35-1.45.99-1.79,1.79-.07.17-.08.34-.13.51-.05.21-.14.41-.16.63l-2.34,36.66c-.78,12.25,3.28,23.49,11.43,31.64,7.49,7.49,17.59,11.53,28.68,11.53.98,0,1.97-.03,2.96-.09l35.1-2.24,8.53,8.53c.67.67,1.56,1.01,2.44,1.01s1.76-.34,2.44-1.01c1.35-1.35,1.35-3.53,0-4.88ZM71.41,35.63c10.23-.65,19.59,2.69,26.33,9.43,6.73,6.74,10.08,16.09,9.43,26.33l-1.85,29.05-11.37-11.37c3.83-4.87,6.13-11,6.13-17.66,0-15.81-12.86-28.67-28.67-28.67-6.66,0-12.79,2.31-17.66,6.13l-11.37-11.37,29.05-1.85ZM71.4,49.62c12.01,0,21.78,9.77,21.78,21.78s-9.77,21.78-21.78,21.78-21.78-9.77-21.78-21.78,9.77-21.78,21.78-21.78ZM71.39,107.16c-10.24.66-19.59-2.69-26.33-9.43-6.74-6.73-10.08-16.08-9.43-26.33l1.85-29.05,11.37,11.37c-3.83,4.87-6.13,11-6.13,17.66,0,15.81,12.86,28.67,28.67,28.67,6.66,0,12.79-2.3,17.66-6.13l11.37,11.37-29.05,1.85Z"/>
  </g>
</svg>