<?xml version="1.0" encoding="UTF-8"?>
<svg id="Layer_2" data-name="Layer 2" xmlns="http://www.w3.org/2000/svg" viewBox="0 0 512 512">
  <defs>
    <style>
      .cls-1 {
        fill: #fff;
      }
    </style>
  </defs>
  <g id="Layer_1-2" data-name="Layer 1">
    <rect width="512" height="512" rx="56.89" ry="56.89"/>
    <path class="cls-1" d="M410.75,394.1l-29.11-29.11,7.65-119.82c2.67-41.81-11.2-80.17-39.04-108.01-27.84-27.84-66.32-41.66-108-39.03l-125.13,7.99c-.76.05-1.43.35-2.15.54-.59.15-1.18.2-1.75.44-2.75,1.19-4.94,3.37-6.13,6.13-.24.56-.29,1.16-.44,1.75-.19.72-.49,1.38-.54,2.15l-7.99,125.13c-2.67,41.81,11.2,80.17,39.03,108.01,25.58,25.58,60.04,39.35,97.9,39.35,3.35,0,6.72-.1,10.11-.32l119.82-7.65,29.11,29.11c2.3,2.3,5.31,3.45,8.32,3.45s6.02-1.15,8.32-3.45c4.6-4.6,4.6-12.05,0-16.64ZM243.75,121.62c34.92-2.22,66.87,9.2,89.86,32.17,22.98,22.99,34.42,54.91,32.19,89.87l-6.33,99.14-38.82-38.82c13.07-16.64,20.94-37.54,20.94-60.29,0-53.97-43.91-97.87-97.87-97.87-22.75,0-43.66,7.87-60.29,20.94l-38.81-38.81,99.15-6.33ZM243.71,169.37c40.99,0,74.33,33.35,74.33,74.33s-33.35,74.33-74.33,74.33-74.33-33.34-74.33-74.33,33.35-74.33,74.33-74.33ZM243.67,365.79c-34.96,2.25-66.88-9.2-89.86-32.19-22.99-22.98-34.42-54.89-32.19-89.86l6.33-99.14,38.81,38.81c-13.07,16.64-20.94,37.55-20.94,60.29,0,53.96,43.91,97.87,97.87,97.87,22.75,0,43.65-7.87,60.29-20.93l38.82,38.82-99.14,6.33Z"/>
  </g>
</svg>