<?xml version="1.0" encoding="UTF-8"?>
<svg id="Layer_2" data-name="Layer 2" xmlns="http://www.w3.org/2000/svg" viewBox="0 0 1920 1080">
  <defs>
    <style>
      .cls-1 {
        fill: #fff;
      }
    </style>
  </defs>
  <g id="Layer_1-2" data-name="Layer 1">
    <rect width="1920" height="1080"/>
    <path class="cls-1" d="M1065.65,634.28l-19.87-19.87,5.22-81.8c1.82-28.55-7.64-54.73-26.65-73.74-19-19-45.28-28.44-73.73-26.64l-85.43,5.45c-.52.03-.98.24-1.46.37-.4.1-.81.13-1.19.3-1.88.81-3.37,2.3-4.18,4.18-.17.39-.2.79-.3,1.19-.13.49-.34.94-.37,1.46l-5.45,85.43c-1.82,28.55,7.64,54.73,26.65,73.74,17.46,17.46,40.99,26.87,66.83,26.87,2.28,0,4.59-.07,6.9-.22l81.8-5.22,19.87,19.87c1.57,1.57,3.63,2.35,5.68,2.35s4.11-.78,5.68-2.35c3.14-3.14,3.14-8.22,0-11.36ZM951.64,448.26c23.84-1.51,45.65,6.28,61.35,21.97,15.69,15.7,23.5,37.48,21.97,61.36l-4.32,67.68-26.5-26.5c8.92-11.36,14.29-25.63,14.29-41.16,0-36.84-29.97-66.82-66.82-66.82-15.53,0-29.8,5.37-41.16,14.29l-26.5-26.5,67.69-4.32ZM951.61,480.86c27.98,0,50.75,22.77,50.75,50.75s-22.77,50.74-50.75,50.74-50.75-22.76-50.75-50.74,22.77-50.75,50.75-50.75ZM951.58,614.95c-23.87,1.53-45.66-6.28-61.35-21.97-15.7-15.69-23.5-37.48-21.97-61.35l4.32-67.68,26.5,26.5c-8.92,11.36-14.29,25.63-14.29,41.16,0,36.84,29.97,66.81,66.82,66.81,15.53,0,29.8-5.37,41.16-14.29l26.5,26.5-67.68,4.32Z"/>
  </g>
</svg>